<?xml version="1.0" encoding="utf-8"?>
<!-- Generator: Adobe Illustrator 28.2.0, SVG Export Plug-In . SVG Version: 6.00 Build 0)  -->
<svg version="1.1" baseProfile="basic" id="Layer_1" xmlns:v="https://vecta.io/nano"
	 xmlns="http://www.w3.org/2000/svg" xmlns:xlink="http://www.w3.org/1999/xlink" x="0px" y="0px" viewBox="0 0 908.4 224.2"
	 xml:space="preserve">
<g>
	<path fill="none" stroke="#E1E4E8" stroke-miterlimit="10" d="M5.1,0.6h100c2.5,0,4.5,2,4.5,4.5v100c0,2.5-2,4.5-4.5,4.5H5.1
		c-2.5,0-4.5-2-4.5-4.5V5.1C0.6,2.6,2.6,0.6,5.1,0.6z"/>
	<g>
		<path id="B" fill="none" stroke="#E1E4E8" stroke-miterlimit="10" d="M119.1,0.6h100c2.5,0,4.5,2,4.5,4.5l0,0v100
			c0,2.5-2,4.5-4.5,4.5l0,0h-100c-2.5,0-4.5-2-4.5-4.5l0,0V5.1C114.6,2.6,116.6,0.6,119.1,0.6L119.1,0.6z"/>
	</g>
	<g>
		<path id="B_00000023973953539640513920000014518625398390408361_" fill="none" stroke="#E1E4E8" stroke-miterlimit="10" d="
			M233.1,0.6h100c2.5,0,4.5,2,4.5,4.5l0,0v100c0,2.5-2,4.5-4.5,4.5l0,0h-100c-2.5,0-4.5-2-4.5-4.5l0,0V5.1
			C228.6,2.6,230.6,0.6,233.1,0.6L233.1,0.6z"/>
	</g>
	<g>
		<path id="B_00000161611099769244839120000017569882696309095066_" fill="none" stroke="#E1E4E8" stroke-miterlimit="10" d="
			M347.1,0.6h100c2.5,0,4.5,2,4.5,4.5l0,0v100c0,2.5-2,4.5-4.5,4.5l0,0h-100c-2.5,0-4.5-2-4.5-4.5l0,0V5.1
			C342.6,2.6,344.6,0.6,347.1,0.6L347.1,0.6z"/>
	</g>
	<g>
		<path id="B_00000003104779349725195940000014501464068832693682_" fill="none" stroke="#E1E4E8" stroke-miterlimit="10" d="
			M461.1,0.6h100c2.5,0,4.5,2,4.5,4.5l0,0v100c0,2.5-2,4.5-4.5,4.5l0,0h-100c-2.5,0-4.5-2-4.5-4.5l0,0V5.1
			C456.6,2.6,458.6,0.6,461.1,0.6L461.1,0.6z"/>
	</g>
	<g>
		<path id="B_00000176013555818502499900000009683372000544621717_" fill="none" stroke="#E1E4E8" stroke-miterlimit="10" d="
			M575.1,0.6h100c2.5,0,4.5,2,4.5,4.5l0,0v100c0,2.5-2,4.5-4.5,4.5l0,0h-100c-2.5,0-4.5-2-4.5-4.5l0,0V5.1
			C570.6,2.6,572.6,0.6,575.1,0.6L575.1,0.6z"/>
	</g>
	<g>
		<path id="B_00000056410289752909130890000006660313194133758652_" fill="none" stroke="#E1E4E8" stroke-miterlimit="10" d="
			M689.1,0.6h100c2.5,0,4.5,2,4.5,4.5l0,0v100c0,2.5-2,4.5-4.5,4.5l0,0h-100c-2.5,0-4.5-2-4.5-4.5l0,0V5.1
			C684.6,2.6,686.6,0.6,689.1,0.6L689.1,0.6z"/>
	</g>
	<g>
		<path id="B_00000115475013550545561480000015583483744978910879_" fill="none" stroke="#E1E4E8" stroke-miterlimit="10" d="
			M803.1,0.6h100c2.5,0,4.5,2,4.5,4.5l0,0v100c0,2.5-2,4.5-4.5,4.5l0,0h-100c-2.5,0-4.5-2-4.5-4.5l0,0V5.1
			C798.6,2.6,800.6,0.6,803.1,0.6L803.1,0.6z"/>
	</g>
	<path fill="none" stroke="#E1E4E8" stroke-miterlimit="10" d="M5.1,114.6h100c2.5,0,4.5,2,4.5,4.5v100c0,2.5-2,4.5-4.5,4.5H5.1
		c-2.5,0-4.5-2-4.5-4.5v-100C0.6,116.6,2.6,114.6,5.1,114.6z"/>
	<g>
		<path id="C" fill="none" stroke="#E1E4E8" stroke-miterlimit="10" d="M119.1,114.6h100c2.5,0,4.5,2,4.5,4.5l0,0v100
			c0,2.5-2,4.5-4.5,4.5l0,0h-100c-2.5,0-4.5-2-4.5-4.5l0,0v-100C114.6,116.6,116.6,114.6,119.1,114.6L119.1,114.6z"/>
	</g>
	<g>
		<path id="C_00000016779799585069311510000007444136110105749135_" fill="none" stroke="#E1E4E8" stroke-miterlimit="10" d="
			M232.9,114.6h100c2.5,0,4.5,2,4.5,4.5l0,0v100c0,2.5-2,4.5-4.5,4.5l0,0h-100c-2.5,0-4.5-2-4.5-4.5l0,0v-100
			C228.4,116.6,230.4,114.6,232.9,114.6L232.9,114.6z"/>
	</g>
	<g>
		<path id="C_00000151540789118648305840000017214904446844456125_" fill="none" stroke="#E1E4E8" stroke-miterlimit="10" d="
			M347.1,114.6h100c2.5,0,4.5,2,4.5,4.5l0,0v100c0,2.5-2,4.5-4.5,4.5l0,0h-100c-2.5,0-4.5-2-4.5-4.5l0,0v-100
			C342.6,116.6,344.6,114.6,347.1,114.6L347.1,114.6z"/>
	</g>
	<g>
		<path id="C_00000072247828262204075900000012358579753109336201_" fill="none" stroke="#E1E4E8" stroke-miterlimit="10" d="
			M461.1,114.6h100c2.5,0,4.5,2,4.5,4.5l0,0v100c0,2.5-2,4.5-4.5,4.5l0,0h-100c-2.5,0-4.5-2-4.5-4.5l0,0v-100
			C456.6,116.6,458.6,114.6,461.1,114.6L461.1,114.6z"/>
	</g>
	<g>
		<path id="C_00000112591903598812276220000010921364766666168738_" fill="none" stroke="#E1E4E8" stroke-miterlimit="10" d="
			M575.1,114.6h100c2.5,0,4.5,2,4.5,4.5l0,0v100c0,2.5-2,4.5-4.5,4.5l0,0h-100c-2.5,0-4.5-2-4.5-4.5l0,0v-100
			C570.6,116.6,572.6,114.6,575.1,114.6L575.1,114.6z"/>
	</g>
	<g>
		<path id="C_00000149355494764627673190000013865008202075920528_" fill="none" stroke="#E1E4E8" stroke-miterlimit="10" d="
			M689.1,114.6h100c2.5,0,4.5,2,4.5,4.5l0,0v100c0,2.5-2,4.5-4.5,4.5l0,0h-100c-2.5,0-4.5-2-4.5-4.5l0,0v-100
			C684.6,116.6,686.6,114.6,689.1,114.6L689.1,114.6z"/>
	</g>
	<g>
		<path id="C_00000086683364924077343780000017223493712575977128_" fill="none" stroke="#E1E4E8" stroke-miterlimit="10" d="
			M803.1,114.6h100c2.5,0,4.5,2,4.5,4.5l0,0v100c0,2.5-2,4.5-4.5,4.5l0,0h-100c-2.5,0-4.5-2-4.5-4.5l0,0v-100
			C798.6,116.6,800.6,114.6,803.1,114.6L803.1,114.6z"/>
	</g>
</g>
<path fill="#F0DB4F" d="M595.1,139.1h60v60h-60V139.1z"/>
<path fill="#323330" d="M650.2,184.8c-0.4-2.7-2.2-5-7.5-7.2c-1.8-0.8-3.9-1.4-4.5-2.8c-0.2-0.8-0.2-1.3-0.1-1.8
	c0.4-1.6,2.3-2.1,3.8-1.6c1,0.3,1.9,1.1,2.4,2.3l4.4-2.8c-0.7-1-1-1.5-1.4-1.9c-1.6-1.7-3.7-2.6-7.1-2.6c-0.6,0.1-1.2,0.2-1.8,0.2
	c-1.7,0.4-3.3,1.3-4.3,2.5c-2.8,3.2-2,8.9,1.4,11.2c3.4,2.6,8.4,3.1,9,5.5c0.6,2.9-2.2,3.9-4.9,3.5c-2-0.4-3.2-1.5-4.4-3.3
	c-2.2,1.3-2.2,1.3-4.6,2.6c0.5,1.2,1.1,1.7,2,2.8c4.3,4.4,15.2,4.2,17.2-2.5C650.1,188.7,650.6,187.1,650.2,184.8L650.2,184.8z
	 M627.7,166.7h-5.6v14.5c0,3.1,0.2,5.9-0.3,6.8c-0.8,1.7-2.9,1.5-3.9,1.2c-1-0.5-1.5-1.2-2.1-2.2c-0.2-0.3-0.3-0.5-0.3-0.5
	c-1.5,0.9-3,1.9-4.6,2.8c0.8,1.6,1.9,2.9,3.3,3.8c2.1,1.3,5,1.7,8,1c2-0.6,3.6-1.8,4.5-3.5c1.3-2.4,1-5.2,1-8.4L627.7,166.7
	L627.7,166.7L627.7,166.7z"/>
<path fill="#004482" d="M309.4,156.9c0-0.9-0.2-1.8-0.6-2.7c-0.5-0.8-1.1-1.4-1.9-1.9L285.7,140c-1.9-1.1-3.8-1.1-5.7,0.1
	c-2.8,1.7-17,9.8-21.2,12.2c-1.7,1-2.6,2.5-2.6,4.5v24.7c0,0.9,0.2,1.8,0.6,2.6c0.5,0.8,1.1,1.5,2,1.9c4.2,2.5,18.4,10.6,21.2,12.2
	c1.9,1.1,3.8,1.2,5.7,0.1l21.2-12.3c0.8-0.5,1.5-1.1,2-1.9c0.4-0.8,0.6-1.7,0.6-2.6L309.4,156.9L309.4,156.9L309.4,156.9z"/>
<path fill="#00599C" d="M309.4,181.7c0,0.9-0.2,1.8-0.6,2.6c-0.1,0.2-0.2,0.4-0.4,0.5l-25.7-15.5l24.1-16.9c0.8,0.4,1.5,1.1,1.9,1.9
	c0.4,0.8,0.7,1.7,0.7,2.7V181.7L309.4,181.7z"/>
<path fill="#659AD2" d="M308.7,154.3l-52,29.9c-0.4-0.8-0.6-1.7-0.6-2.6v-24.7c0-2,0.8-3.5,2.6-4.5l21.2-12.2
	c1.9-1.1,3.8-1.2,5.7-0.1l21.2,12.3C307.6,152.8,308.2,153.5,308.7,154.3L308.7,154.3z"/>
<path fill="#FFFFFF" d="M283.8,179.2c-3.6,0-6.9-1.9-8.6-5.1c-0.1-0.2-0.2-0.3-0.2-0.5c-2.4-4.9-0.3-10.7,4.5-13.1
	c4.1-2,9-0.9,11.8,2.6c0.1,0.2,0.2,0.3,0.4,0.5c0.1,0.1,0.1,0.2,0.2,0.2l8.6-5c-0.2-0.3-0.4-0.7-0.7-1c-0.1-0.2-0.2-0.3-0.4-0.5
	c-6.6-8.6-18.9-10.2-27.5-3.6c-7.5,5.8-9.8,16.2-5.4,24.5c0.1,0.2,0.2,0.3,0.2,0.5c5.3,9.4,17.3,12.7,26.6,7.4
	c2.8-1.6,5.1-3.8,6.9-6.5l-8.4-5.1C290.2,177.6,287.1,179.2,283.8,179.2L283.8,179.2L283.8,179.2z"/>
<path fill="#E34F26" d="M33.2,78.9l-4.3-53.8l52.5,0.1l-4.7,53.6l-21.4,6.3C55.3,85.1,33.2,78.9,33.2,78.9z"/>
<path fill="#EF652A" d="M55.3,79.9V30.2l21.5,0.2l-3.7,44.3C73.1,74.7,55.3,79.9,55.3,79.9z"/>
<path fill="#FFFFFF" d="M71,42.6l0.6-6.6H38.3l1.8,20.2H63l-0.9,8.6l-7.4,2l-7.5-2.2l-0.4-5.1h-6.6l1,10.5l13.6,3.8l13.6-3.7
	l1.8-20.4h-24l-0.7-6.9L71,42.6L71,42.6L71,42.6z"/>
<path fill="#1B73BA" d="M147.2,78.9l-4.3-53.8l52.6,0.1l-4.7,53.6l-21.5,6.3C169.3,85.1,147.2,78.9,147.2,78.9z"/>
<path fill="#1C88C7" d="M169.3,79.9V30.2l21.5,0.2l-3.7,44.3L169.3,79.9z"/>
<path fill="#FFFFFF" d="M185.6,36.6h-33.3l0.9,6.5H169l-15.6,6.7l0.9,6.3h22.8l-0.8,8.8l-7.8,1.5l-7-1.8l-0.5-5h-6.5l0.9,10.4
	l13.9,3.9l13.3-4.2l1.7-20.2h-14l15.3-6.3L185.6,36.6L185.6,36.6z"/>
<g>
	<g>
		<defs>
			<rect id="SVGID_1_" x="357.1" y="31.1" width="80" height="48"/>
		</defs>
		<clipPath id="SVGID_00000087370008835311888890000008425080959976794290_">
			<use xlink:href="#SVGID_1_"  overflow="visible"/>
		</clipPath>
		<g clip-path="url(#SVGID_00000087370008835311888890000008425080959976794290_)">
			<path fill-rule="evenodd" clip-rule="evenodd" fill="#38BDF8" d="M397.1,31.1c-10.7,0-17.3,5.3-20,16c4-5.3,8.7-7.3,14-6
				c3,0.8,5.2,3,7.6,5.4c3.9,4,8.5,8.6,18.4,8.6c10.7,0,17.3-5.3,20-16c-4,5.3-8.7,7.3-14,6c-3-0.8-5.2-3-7.6-5.4
				C411.6,35.7,407,31.1,397.1,31.1z M377.1,55.1c-10.7,0-17.3,5.3-20,16c4-5.3,8.7-7.3,14-6c3,0.8,5.2,3,7.6,5.4
				c3.9,4,8.5,8.6,18.4,8.6c10.7,0,17.3-5.3,20-16c-4,5.3-8.7,7.3-14,6c-3-0.8-5.2-3-7.6-5.4C391.6,59.7,387,55.1,377.1,55.1z"/>
		</g>
	</g>
</g>
<path fill="#CD6799" d="M511.4,61.1l-4.4,2.3l-2.6,1.4l-0.2-0.2c-4.5-4.8-12.9-8.2-12.4-14.6c0.1-2.3,0.9-8.5,16-16
	c12.3-6.1,22.1-4.4,23.9-0.7c2.4,5.3-5.3,15.2-18.1,16.6c-2.9,0.6-5.8-0.2-8.1-2c-0.7-0.7-0.8-0.8-1-0.6c-0.4,0.2-0.1,0.9,0,1.3
	c1,1.8,2.6,3.1,4.6,3.6c5,1.1,10.2,0.6,14.9-1.5c7.7-3,13.7-11.4,12-18.2c-1.8-7.1-13.5-9.4-24.5-5.4c-6.9,2.3-13.3,6-19,10.8
	c-6.1,5.7-7.1,10.8-6.7,12.7c1.4,7.4,11.7,12.3,15.7,15.7l-0.6,0.3c-2,1-9.9,5.1-11.7,9.3c-2.2,4.9,0.4,8.4,2,8.8
	c5.2,1.2,10.6-0.9,13.5-5.5c2.4-3.7,2.9-8.4,1.2-12.4c0.5-0.4,1-0.7,1.5-1l2.9-1.7l0,0c3-1.4,6.3-2.1,9.6-2.1c7,0.8,8.4,5.2,8.1,7
	c-0.2,1.3-1.1,2.5-2.2,3.1c-0.5,0.3-0.6,0.4-0.6,0.6c0.1,0.3,0.3,0.3,0.7,0.2c2.1-0.7,3.6-2.6,3.8-4.8c0.2-4.3-3.9-9-11.1-9
	c-2.2,0-4.3,0.4-6.3,1.3C512,60.8,511.7,60.9,511.4,61.1L511.4,61.1L511.4,61.1z M501,77.9c-2.3,2.5-5.5,3.5-6.9,2.7
	c-1.5-0.9-0.9-4.6,1.9-7.2c1.7-1.5,3.5-2.9,5.4-4.1c0.3-0.2,0.8-0.5,1.4-0.9c0.1-0.1,0.2-0.1,0.2-0.1l0.4-0.2
	C504.4,71.6,503.5,75.4,501,77.9L501,77.9z"/>
<g>
	<path fill="#80DEEA" d="M625.1,69.7c-18.8,0-33.5-6.4-33.5-14.5s14.8-14.5,33.5-14.5s33.5,6.4,33.5,14.5S643.9,69.7,625.1,69.7z
		 M625.1,43.5c-18.3,0-30.6,6-30.6,11.6s12.3,11.6,30.6,11.6s30.6-6,30.6-11.6S643.4,43.5,625.1,43.5z"/>
	<path fill="#80DEEA" d="M612.1,85.1c-1.4,0-2.6-0.3-3.8-1c-7.1-4.1-5.3-19.9,4.1-36.3l0,0c4.4-7.6,9.7-14,15-18.1
		c5.7-4.4,10.8-5.7,14.3-3.7c3.7,2,4.9,7.1,4.1,14.3c-0.9,6.7-3.8,14.5-8.1,22.1c-4.4,7.6-9.7,14-15,18.1
		C618.8,83.5,615.1,85.1,612.1,85.1z M638.1,28c-2.3,0-5.4,1.3-8.7,3.9c-4.9,3.9-10.1,10.1-14.3,17.3l0,0
		C606,65,605,78.8,609.8,81.6c2.4,1.4,6.6,0.1,11.1-3.4c4.9-3.9,10.1-10.1,14.3-17.3c4.3-7.2,7-14.8,7.8-21c0.8-5.8-0.1-10-2.6-11.4
		C639.6,28.4,638.9,28,638.1,28z"/>
	<path fill="#80DEEA" d="M638.2,85.1c-7.3,0-17.8-9-25.6-22.6c-9.5-16.3-11.4-32.2-4.3-36.3l0,0c7.1-4.1,19.9,5.4,29.3,21.6
		c4.4,7.6,7.3,15.4,8.1,22.1c1,7.1-0.4,12.1-4.1,14.3C640.7,84.9,639.5,85.1,638.2,85.1z M609.8,28.6c-4.9,2.8-3.9,16.4,5.2,32.4
		s20.5,23.5,25.3,20.6c2.4-1.4,3.4-5.6,2.6-11.4c-0.9-6.3-3.7-13.7-7.8-21C626,33.4,614.6,25.9,609.8,28.6L609.8,28.6z"/>
	<circle fill="#80DEEA" cx="625.1" cy="55.2" r="5.8"/>
</g>
<path fill="#E64A19" d="M854.5,45.1h-11.4c-5.5,0-10-4.5-10-10l0,0c0-5.5,4.5-10,10-10h11.4V45.1z"/>
<path fill="#7C4DFF" d="M853.1,65.1h-10c-5.5,0-10-4.5-10-10l0,0c0-5.5,4.5-10,10-10h10V65.1z"/>
<path fill="#66BB6A" d="M843.1,85.1L843.1,85.1c-5.5,0-10-4.5-10-10l0,0c0-5.5,4.5-10,10-10h10v10C853.1,80.6,848.6,85.1,843.1,85.1
	z"/>
<path fill="#FF7043" d="M863.1,45.1h-10v-20h10c5.5,0,10,4.5,10,10l0,0C873,40.6,868.5,45.1,863.1,45.1z"/>
<circle fill="#29B6F6" cx="863.1" cy="55.1" r="10"/>
<path fill="#7C4DFF" d="M709.7,32.9c-0.1-4.1,3-7.8,7.3-7.8h44.1c4.3,0,7.5,3.7,7.3,7.8c-0.1,4,0,9,1.4,13.1
	c1.4,4.2,3.5,6.8,6.9,7.1V57c-3.6,0.4-5.8,3-6.9,7.1c-1.4,4.1-1.4,9.3-1.4,13.1c0.1,4.1-3,7.8-7.3,7.8H717c-4.3,0-7.5-3.7-7.3-7.8
	c0.1-4,0-9-1.4-13.1c-1.4-4.2-3.5-6.8-6.9-7.1v-3.9c3.6-0.4,5.8-3,6.9-7.1C709.7,42,710,36.9,709.7,32.9z"/>
<path fill="#FFFFFF" d="M744.6,54.2L744.6,54.2c3.2-0.6,5.9-3.7,5.9-7.1c0-2.4-1-4.4-2.6-5.9c-1.7-1.4-4.2-2.2-7.1-2.2h-13.1v32.1
	H741c3.5,0,6.2-0.8,8.3-2.4c1.9-1.5,3-3.9,3-6.8C752,57.9,749.1,54.7,744.6,54.2z M738.5,52.8h-5.7v-9.4h6.8c3.7,0,5.7,1.5,5.7,4.6
	S742.8,52.8,738.5,52.8z M732.8,56.6h6.6c4.8,0,7.2,1.7,7.2,5.1c0,3.3-2.4,5.1-6.9,5.1h-6.9C732.8,67.1,732.8,56.6,732.8,56.6
	L732.8,56.6z"/>
<g>
	<path fill="#F44336" d="M168.5,170.8c-1.8-2.8-3.1-5.2-4.8-9.5c-2.9-7.4,18.1-14.1,9.5-27.1c3.8,8.8-13.3,14.5-14.8,21.8
		C157,163,168.5,170.8,168.5,170.8z M168.8,157.5c-0.4,4.5,3.9,6.7,3.9,9.9c0.1,2.5-2.5,4.8-2.5,4.8s4.8-1,6.3-4.9
		c1.7-4.5-3.2-7.4-2.7-10.9c0.4-3.4,10.5-9.7,10.5-9.7S169.8,147.6,168.8,157.5L168.8,157.5z"/>
	<path fill="#1565C0" d="M183.2,171.1c3.1-0.7,5.6,1.3,5.6,3.5c0,5.2-7,9.9-7,9.9s10.9-1.3,10.9-9.7
		C192.7,169.4,187.4,168,183.2,171.1L183.2,171.1z M178,175.2c0,0,3.4-2.5,4.3-3.4c-8.3,1.8-27.4,2-27.4,0.4c0-1.4,6.2-2.9,6.2-2.9
		s-13.7-0.3-13.7,3.9C147.5,177.4,165.3,177.8,178,175.2L178,175.2z M176.1,179.1c-8,2.5-22.4,1.8-18.1-1.8c-2.1,0-5.3,1.7-5.3,3.2
		c0,3.2,15.8,5.7,27.2,1.1L176.1,179.1L176.1,179.1z M159.8,184.4c-2.9,0-4.6,1.8-4.6,3.2c0,4.2,17.1,4.6,23.7,0.4l-4.3-2.8
		C169.5,187.4,156.8,187.8,159.8,184.4L159.8,184.4z M190.6,191.3c0-1.7-1.8-2.5-2.5-2.8c3.9,9.5-39.2,8.7-39.2,3.2
		c0-1.3,3.2-2.5,6-1.8l-2.5-1.5c-5.9-1-9.8,1.7-9.8,3.8C142.9,201.6,190.6,201.3,190.6,191.3L190.6,191.3z M195.4,194.8
		c-7.3,7.1-25.7,9.8-44.1,5.3C169.8,207.9,195.2,203.5,195.4,194.8z"/>
</g>
<g>
	<path id="D" fill="#5C8DBC" d="M423.7,156.8c0-1-0.2-1.9-0.7-2.7c-0.4-0.8-1.1-1.4-1.9-1.9l-21.2-12.3c-1.9-1.1-3.8-1.1-5.7,0.1
		c-2.8,1.7-17,9.8-21.2,12.2c-1.7,1-2.6,2.5-2.6,4.5v24.7c0,1,0.2,1.9,0.6,2.6c0.4,0.8,1.1,1.4,2,1.9l21.2,12.2
		c1.9,1.1,3.8,1.2,5.7,0.1l21.2-12.3c0.9-0.5,1.5-1.2,2-1.9c0.4-0.8,0.6-1.6,0.6-2.6C423.7,181.6,423.7,165.1,423.7,156.8"/>
</g>
<g>
	<path fill="#1A4674" d="M397.1,169.1l-26.2,15.1c0.4,0.8,1.1,1.4,2,1.9l21.2,12.2c1.9,1.1,3.8,1.2,5.7,0.1l21.2-12.3
		c0.9-0.5,1.5-1.2,2-1.9L397.1,169.1"/>
	<path fill="#1A4674" d="M389.4,173.5c1.5,2.7,4.4,4.4,7.7,4.4c3.2,0,6.1-1.7,7.7-4.5l-7.6-4.4L389.4,173.5"/>
</g>
<path fill="#1B598E" d="M423.7,156.8c0-1-0.2-1.9-0.7-2.7L397,169l26,15.1c0.4-0.8,0.6-1.6,0.6-2.6
	C423.7,181.6,423.7,165.1,423.7,156.8"/>
<path fill="#FFFFFF" d="M422.3,170.2h-2v2h-2v-2h-2v-2h2v-2h2v2h2V170.2 M414.9,170.2h-2v2h-2v-2h-2v-2h2v-2h2v2h2V170.2
	 M404.7,173.5c-1.6,2.8-4.5,4.5-7.7,4.5c-3.3,0-6.1-1.8-7.7-4.4c-0.8-1.3-1.2-2.8-1.2-4.4c0-4.9,4-8.8,8.8-8.8
	c3.3,0,6.1,1.8,7.6,4.4l7.7-4.4c-3.1-5.3-8.8-8.9-15.4-8.9c-9.8,0-17.7,7.9-17.7,17.6c0,0,0,0,0,0.1c0,3.2,0.9,6.2,2.3,8.8
	c3.1,5.3,8.8,8.9,15.4,8.9s12.3-3.6,15.4-8.9L404.7,173.5"/>
<g>
	<path id="D_00000162322019015336336990000001319495554665421220_" fill="#A179DC" d="M537.7,156.8c0-1-0.2-1.9-0.7-2.7
		c-0.4-0.8-1.1-1.4-1.9-1.9l-21.2-12.3c-1.9-1.1-3.8-1.1-5.7,0.1c-2.8,1.7-17,9.8-21.2,12.2c-1.7,1-2.6,2.5-2.6,4.5v24.7
		c0,1,0.2,1.9,0.6,2.6c0.4,0.8,1.1,1.4,2,1.9l21.2,12.2c1.9,1.1,3.8,1.2,5.7,0.1l21.2-12.3c0.9-0.5,1.5-1.2,2-1.9
		c0.4-0.8,0.6-1.6,0.6-2.6C537.7,181.6,537.7,165.1,537.7,156.8"/>
</g>
<path fill="#280068" d="M511.1,169.1l-26.2,15.1c0.4,0.8,1.1,1.4,2,1.9l21.2,12.2c1.9,1.1,3.8,1.2,5.7,0.1l21.2-12.3
	c0.9-0.5,1.5-1.2,2-1.9L511.1,169.1z"/>
<path fill="#390091" d="M537.7,156.8c0-1-0.2-1.9-0.7-2.7L511,169l26,15.1c0.4-0.8,0.6-1.6,0.6-2.6
	C537.7,181.6,537.7,165.1,537.7,156.8"/>
<polygon fill="#FFFFFF" points="526.5,163.5 526.5,166.3 529.3,166.3 529.3,163.5 530.7,163.5 530.7,166.3 533.5,166.3 533.5,167.7 
	530.7,167.7 530.7,170.5 533.5,170.5 533.5,171.9 530.7,171.9 530.7,174.7 529.3,174.7 529.3,171.9 526.5,171.9 526.5,174.7 
	525.1,174.7 525.1,171.9 522.3,171.9 522.3,170.5 525.1,170.5 525.1,167.7 522.3,167.7 522.3,166.3 525.1,166.3 525.1,163.5 "/>
<rect x="526.6" y="167.7" fill="#FFFFFF" width="2.8" height="2.8"/>
<path fill="#FFFFFF" d="M511.1,149.4c7.3,0,13.7,4,17.2,9.9v-0.1l-8.6,5c-1.7-2.9-4.8-4.8-8.4-4.9h-0.1c-5.4,0-9.9,4.4-9.9,9.8v0.1
	c0,1.7,0.4,3.4,1.3,4.9c1.7,3,4.9,5,8.6,5s6.9-2,8.6-5v0.1l8.6,5c-3.4,5.9-9.7,9.8-17,9.9h-0.3c-7.4,0-13.8-4-17.2-10
	c-1.7-2.9-2.6-6.3-2.6-9.9C491.4,158.2,500.3,149.4,511.1,149.4L511.1,149.4L511.1,149.4z"/>
<path fill="#FFFFFF" d="M319.2,36.6v36.7c0,1.7-0.6,2.4-2.3,2.4h-33.7l-33.7-0.1c-1.8,0-2.4-0.7-2.4-2.4V36.5c0-1.6,0.7-2.3,2.3-2.3
	h67.5C318.6,34.2,319.2,34.9,319.2,36.6z"/>
<path fill="#FFFFFF" d="M319.2,36.6v36.7c0,1.7-0.6,2.4-2.3,2.4h-33.7l-33.7-0.1c-1.8,0-2.4-0.7-2.4-2.4V36.5c0-1.6,0.7-2.3,2.3-2.3
	h67.5C318.6,34.2,319.2,34.9,319.2,36.6z"/>
<g>
	<path d="M317.2,30.5h-34c-11.3,0-22.7,0-34,0.3c-3.4,0-5.9,2.4-5.9,5.9v37.2c0,0.3,0,0.8,0.1,1.1c0.5,3,2.8,4.8,5.9,4.8
		c22.6,0,45.1-0.1,67.7,0c3.6,0,6.3-2.8,6.3-6.3V36.7C323.3,32.9,320.9,30.5,317.2,30.5z M319.2,73.3c0,1.7-0.6,2.4-2.3,2.4h-33.7
		l-33.7-0.1c-1.8,0-2.4-0.7-2.4-2.4V36.5c0-1.6,0.7-2.3,2.3-2.3h67.5c1.7,0,2.3,0.7,2.3,2.4V73.3z"/>
	<path d="M254.7,41.9h7.3c0.3,0,0.6,0.3,0.7,0.6l6.9,8.5c0.1,0.1,0.3,0.3,0.4,0.6l1.7-2.1l5.5-6.9c0.3-0.3,0.7-0.6,1.1-0.6h6.9v26.2
		h-7.6V53.5h-0.1l-7.5,9.3l-7.6-9.5V68h-7.8L254.7,41.9L254.7,41.9z"/>
	<polygon points="290.8,55 298.4,55 298.4,42 306.2,42 306.2,55 314,55 302.3,68.5 	"/>
</g>
<g>
	<ellipse fill-rule="evenodd" clip-rule="evenodd" fill="#8993BE" cx="853.1" cy="169.1" rx="40" ry="20.8"/>
	<path fill-rule="evenodd" clip-rule="evenodd" fill="#232531" d="M824.3,181.5l4.4-22.1h10.1c4.4,0.3,6.6,2.5,6.6,6.3
		c0,6.6-5.2,10.4-9.8,10.1h-4.9l-1.1,5.8h-5.3V181.5z M831.7,171.6l1.4-8.2h3.5c2,0,3.3,0.8,3.3,2.5c-0.3,4.7-2.5,5.5-4.9,5.8
		L831.7,171.6L831.7,171.6z M844.4,175.7l4.4-22.1h5.2l-1.1,5.8h4.9c4.4,0.3,6.1,2.5,5.5,5.2l-2,11.2h-5.5l2-10.1
		c0.3-1.4,0.3-2.1-1.6-2.1h-4.1l-2.5,12.4L844.4,175.7L844.4,175.7L844.4,175.7z M861.1,181.5l4.4-22.1h10.1
		c4.4,0.3,6.6,2.5,6.6,6.3c0,6.6-5.2,10.4-9.8,10.1h-4.9l-1.1,5.8h-5.3V181.5z M868.4,171.6l1.4-8.2h3.5c2,0,3.3,0.8,3.3,2.5
		c-0.3,4.7-2.5,5.5-4.9,5.8L868.4,171.6L868.4,171.6z"/>
</g>
<path fill="#007ACC" d="M709.1,169.1v-30h60v60h-60"/>
<path fill="#FFFFFF" d="M722.3,169.2v2.4h7.8v22.2h5.5v-22.2h7.8v-2.4l-0.1-2.5l-10.5-0.1h-10.5V169.2L722.3,169.2L722.3,169.2z
	 M757.3,166.7c1.5,0.4,2.7,1,3.8,2.1c0.6,0.6,1.4,1.7,1.4,1.9c0,0.1-2.6,1.8-4.2,2.8c-0.1,0-0.3-0.2-0.5-0.6
	c-0.8-1.1-1.6-1.6-2.8-1.7c-1.8-0.1-3,0.8-3,2.4c0,0.5,0.1,0.8,0.3,1.1c0.4,0.8,1.2,1.3,3.5,2.3c4.3,1.8,6.2,3.1,7.3,4.8
	c1.3,1.9,1.6,5,0.7,7.3c-1,2.5-3.3,4.2-6.6,4.8c-1,0.2-3.5,0.1-4.6,0c-2.4-0.4-4.7-1.6-6.1-3.2c-0.6-0.6-1.6-2.2-1.6-2.3l0.6-0.4
	l2.2-1.3l1.7-1l0.4,0.5c0.5,0.8,1.6,1.8,2.2,2.2c2,1,4.6,0.9,5.9-0.3c0.6-0.5,0.8-1.1,0.8-1.8s-0.1-1-0.5-1.5
	c-0.5-0.7-1.4-1.2-4.1-2.4c-3.1-1.3-4.4-2.2-5.7-3.4c-0.7-0.8-1.4-2-1.7-3c-0.2-0.9-0.3-3-0.1-3.9c0.6-3,2.9-5.1,6.1-5.7
	C753.8,166.3,756.3,166.4,757.3,166.7L757.3,166.7L757.3,166.7L757.3,166.7z"/>
<g>
	
		<linearGradient id="SVGID_00000148654456812411046580000015955491938414485901_" gradientUnits="userSpaceOnUse" x1="-455.7376" y1="0.3701" x2="-455.7215" y2="0.3861" gradientTransform="matrix(1849.2675 0 0 1853.3917 842811.375 -541.3116)">
		<stop  offset="0" style="stop-color:#387EB8"/>
		<stop  offset="1" style="stop-color:#366994"/>
	</linearGradient>
	<path fill="url(#SVGID_00000148654456812411046580000015955491938414485901_)" d="M54.9,139.1c-15.3,0-14.4,6.6-14.4,6.6v6.9h14.6
		v2.1H34.7c0,0-9.8-1.1-9.8,14.3s8.6,14.9,8.6,14.9h5.1v-7.2c0,0-0.3-8.6,8.4-8.6h14.5c0,0,8.1,0.1,8.1-7.9V147
		C69.6,147.1,70.9,139.1,54.9,139.1z M46.8,143.7c1.5,0,2.6,1.2,2.6,2.6l0,0c0,1.5-1.2,2.6-2.6,2.6l0,0c-1.5,0-2.6-1.2-2.6-2.6l0,0
		C44.2,144.9,45.4,143.7,46.8,143.7L46.8,143.7z"/>
	
		<linearGradient id="SVGID_00000133506087780770024450000003412971316937167236_" gradientUnits="userSpaceOnUse" x1="-456.0762" y1="4.186252e-02" x2="-456.059" y2="5.825046e-02" gradientTransform="matrix(1849.2671 0 0 1853.3918 843455.6875 86.0652)">
		<stop  offset="0" style="stop-color:#FFE052"/>
		<stop  offset="1" style="stop-color:#FFC331"/>
	</linearGradient>
	<path fill="url(#SVGID_00000133506087780770024450000003412971316937167236_)" d="M55.3,199.1c15.3,0,14.4-6.6,14.4-6.6v-6.9H55
		v-2.1h20.4c0,0,9.8,1.1,9.8-14.3s-8.6-14.9-8.6-14.9h-5.1v7.2c0,0,0.3,8.6-8.4,8.6H48.7c0,0-8.1-0.1-8.1,7.9v13.2
		C40.6,191.1,39.3,199.1,55.3,199.1L55.3,199.1z M63.4,194.5c-1.5,0-2.6-1.2-2.6-2.6l0,0c0-1.5,1.2-2.6,2.6-2.6l0,0
		c1.5,0,2.6,1.2,2.6,2.6l0,0C66,193.3,64.8,194.5,63.4,194.5L63.4,194.5L63.4,194.5z"/>
</g>
</svg>
